<?xml version="1.0" encoding="UTF-8"?>
<svg id="Layer_1" data-name="Layer 1" xmlns="http://www.w3.org/2000/svg" viewBox="0 0 181.4 1119.33">
  <defs>
    <style>
      .cls-1 {
        fill: #ed4c39;
      }

      .cls-2 {
        fill: #2c3b38;
      }
    </style>
  </defs>
  <polygon class="cls-1" points="181.4 449.09 149.97 1119.33 133.17 1119.33 168.71 460.11 134.12 444.52 114.54 438.6 112.81 432.32 87.24 78.59 24.7 84.24 5.48 30.13 30.37 10.22 36.51 31.15 25.53 32.97 31.56 27.08 29 18.38 15.34 32.09 31.59 74.71 93.02 65.17 133.56 429.23 181.4 449.09"/>
  <polygon class="cls-2" points="168.71 460.11 133.17 1119.33 63.22 1119.33 130.05 484.46 78.23 470.1 76.74 437.69 75.69 94.83 16.55 96.57 0 23.62 15.63 1.7 41.67 0 40.78 30.44 36.51 31.15 30.37 10.22 5.48 30.13 24.7 84.24 87.24 78.59 112.81 432.32 114.54 438.6 134.12 444.52 168.71 460.11"/>
</svg>