<?xml version="1.0" encoding="UTF-8"?>
<svg id="Layer_1" data-name="Layer 1" xmlns="http://www.w3.org/2000/svg" viewBox="0 0 181.4 1119.33">
  <defs>
    <style>
      .cls-1 {
        fill: #ed4c39;
      }

      .cls-2 {
        fill: #2c3b38;
      }
    </style>
  </defs>
  <polygon class="cls-2" points="181.4 1119.33 124.51 423.89 94.56 412.34 116.66 118.92 48.22 113.34 40.43 44.86 63.8 41.24 58.15 54.79 48.27 59.13 81.49 73.69 98.15 26.77 57.4 0 17.24 22.42 .61 146.76 82.53 153.07 37.29 460.63 75.85 468.73 83.66 1119.33 181.4 1119.33"/>
  <polygon class="cls-1" points="181.4 1119.33 124.51 423.89 94.56 412.34 116.66 118.92 48.22 113.34 40.43 44.86 63.8 41.24 58.15 54.79 48.27 59.13 66.5 60.61 76.12 34.41 28.55 29.85 33.7 124.04 101.72 136.02 69.77 429.55 94.45 444.03 156.43 1119.33 181.4 1119.33"/>
</svg>