<?xml version="1.0" encoding="UTF-8"?>
<svg id="Layer_1" data-name="Layer 1" xmlns="http://www.w3.org/2000/svg" viewBox="0 0 181.4 1119.33">
  <defs>
    <style>
      .cls-1 {
        fill: #ed4c39;
      }

      .cls-2 {
        fill: #2c3b38;
      }
    </style>
  </defs>
  <polygon class="cls-2" points="146.61 407.48 55.95 426.44 146.61 1119.33 68.18 1119.33 12.92 389.23 80.28 378.01 97.01 375.22 95.35 368.08 41.18 135.03 155.43 135.03 117.13 19.48 79.85 27.91 87.52 55.83 106.86 55.42 101.02 69.46 66.35 56.48 69.09 24.02 120.37 0 181.4 151.9 74.01 151.9 146.61 407.48"/>
  <polygon class="cls-1" points="95.35 368.08 97.01 375.22 80.28 378.01 12.92 389.23 68.18 1119.33 49.19 1119.33 0 377.18 71.72 363.08 25.82 119.45 143.1 125.29 113.88 28.56 87.52 32 90.44 46.09 111.29 44.79 106.87 55.42 106.86 55.42 87.52 55.83 79.85 27.91 117.13 19.48 155.43 135.03 41.18 135.03 95.35 368.08"/>
</svg>