<?xml version="1.0" encoding="UTF-8"?>
<svg id="Layer_2" data-name="Layer 2" xmlns="http://www.w3.org/2000/svg" viewBox="0 0 444.9 200.04">
  <defs>
    <style>
      .cls-1 {
        fill: #e9ecef;
      }
    </style>
  </defs>
  <g id="Layer_1-2" data-name="Layer 1">
    <g>
      <path class="cls-1" d="M363.64,0V176.95l-5.87,7.69-5.86-7.69V0h-15.39V184.64l21.25,15.39,21.26-15.39V0h-15.39Z"/>
      <path class="cls-1" d="M27.12,0V176.95l-5.87,7.69-5.86-7.69V0H0V184.64l21.25,15.39,21.26-15.39V0h-15.39Z"/>
      <path class="cls-1" d="M135.38,0V176.95l-5.87,7.69-5.86-7.69V0h-15.39V184.64l21.25,15.39,21.26-15.39V0h-15.39Z"/>
      <path class="cls-1" d="M324.89,15.39L297.77,0h-15.38V200.03h15.38V92.32l11.73,7.69v100.02h15.39V92.32l-15.39-7.7,15.39-7.69V15.39Zm-15.39,53.85l-11.73,7.69V15.39l11.73,7.69v46.16Z"/>
      <path class="cls-1" d="M243.66,0h-15.39V200.03h15.39l27.11-15.38V15.39L243.66,0Zm11.73,176.95l-11.73,7.7V15.39l11.73,7.69V176.95Z"/>
      <polygon class="cls-1" points="54.14 0 69.52 0 69.52 76.94 81.25 76.94 81.25 0 96.64 0 96.64 200.04 81.25 200.04 81.25 92.33 69.52 92.33 69.52 200.04 54.14 200.04 54.14 0"/>
      <polygon class="cls-1" points="216.64 0 216.64 200.04 201.25 200.04 201.25 46.18 189.52 76.95 177.78 46.18 177.78 200.04 162.4 200.04 162.4 0 177.78 7.49 189.52 30.79 201.25 7.49 216.64 0"/>
      <polygon class="cls-1" points="444.9 0 444.9 200.04 429.5 200.04 429.5 46.18 417.77 76.95 406.04 46.18 406.04 200.04 390.65 200.04 390.65 0 406.04 7.49 417.77 30.79 429.5 7.49 444.9 0"/>
    </g>
  </g>
</svg>