<?xml version="1.0" standalone="no"?>
<!DOCTYPE svg PUBLIC "-//W3C//DTD SVG 20010904//EN"
 "http://www.w3.org/TR/2001/REC-SVG-20010904/DTD/svg10.dtd">
<svg version="1.0" xmlns="http://www.w3.org/2000/svg"
 width="992.000000pt" height="992.000000pt" viewBox="0 0 992.000000 992.000000"
 preserveAspectRatio="xMidYMid meet">
<metadata>
Created by potrace 1.14, written by Peter Selinger 2001-2017
</metadata>
<g transform="translate(0.000000,992.000000) scale(0.100000,-0.100000)"
fill="#000000" stroke="none">
<path d="M8487 9914 c-2 -3 -26 -6 -53 -8 -27 -2 -49 -5 -49 -6 0 -1 -16 -3
-35 -5 -19 -1 -57 -5 -85 -9 -70 -10 -103 -14 -160 -21 -27 -3 -61 -8 -75 -10
-14 -2 -47 -6 -75 -10 -27 -3 -63 -8 -80 -11 -16 -2 -50 -6 -75 -8 -25 -3 -61
-7 -80 -10 -19 -3 -53 -8 -75 -11 -119 -13 -143 -16 -170 -19 -16 -3 -52 -7
-80 -11 -136 -17 -155 -21 -155 -35 0 -5 -6 -15 -12 -22 -7 -7 -25 -35 -39
-63 -34 -65 -71 -131 -98 -175 -11 -19 -24 -42 -28 -50 -3 -8 -51 -93 -105
-188 -54 -95 -98 -177 -98 -183 0 -5 -4 -9 -10 -9 -5 0 -10 -5 -10 -11 0 -6
-17 -41 -39 -77 -21 -37 -57 -99 -80 -139 l-41 -72 -28 14 c-28 15 -186 75
-212 80 -8 2 -55 18 -103 34 -49 17 -97 31 -108 31 -10 0 -19 5 -19 12 0 6 -2
9 -6 6 -3 -3 -55 7 -117 23 -62 16 -123 31 -137 34 -14 2 -70 13 -125 24 -55
11 -118 22 -140 25 -22 2 -40 6 -40 7 0 1 -16 3 -35 4 -19 2 -35 4 -35 5 0 2
-30 6 -110 15 -33 3 -82 9 -110 12 -65 7 -702 7 -780 0 -140 -14 -266 -30
-325 -41 -14 -3 -43 -7 -64 -11 -21 -3 -48 -7 -60 -10 -12 -3 -34 -7 -51 -10
-36 -7 -59 -13 -62 -15 -2 -2 -12 -4 -23 -5 -11 -1 -21 -3 -22 -5 -2 -1 -12
-3 -23 -4 -25 -3 -225 -55 -245 -63 -8 -3 -19 -7 -25 -8 -35 -9 -253 -83 -315
-107 -41 -16 -79 -31 -85 -32 -5 -2 -27 -11 -47 -20 -21 -9 -41 -17 -45 -17
-5 -1 -17 -6 -28 -12 -11 -6 -23 -10 -27 -9 -5 1 -8 -3 -8 -8 0 -6 -6 -10 -12
-10 -16 0 -322 -152 -326 -162 -2 -5 -8 -8 -12 -8 -9 0 -231 -129 -240 -139
-3 -3 -13 -10 -22 -16 -33 -19 -193 -129 -208 -142 -8 -7 -42 -34 -75 -59 -97
-73 -115 -87 -225 -182 -142 -123 -308 -289 -450 -452 -30 -35 -63 -71 -72
-82 -10 -10 -18 -20 -18 -23 0 -3 -9 -16 -21 -28 -12 -12 -28 -33 -37 -47 -9
-14 -22 -29 -29 -33 -7 -4 -13 -15 -13 -22 0 -8 -4 -15 -9 -15 -5 0 -18 -15
-30 -32 -11 -18 -26 -42 -33 -53 -7 -11 -16 -22 -19 -25 -11 -8 -99 -142 -99
-149 0 -4 -8 -16 -18 -27 -16 -19 -29 -39 -56 -89 -6 -11 -16 -27 -22 -35 -21
-29 -202 -370 -206 -387 0 -5 -14 -37 -30 -73 -58 -129 -97 -229 -152 -390
-32 -91 -57 -167 -57 -170 1 -8 -20 -82 -34 -125 -7 -22 -15 -53 -18 -70 -3
-16 -8 -40 -11 -52 -12 -48 -17 -72 -40 -198 -23 -121 -28 -156 -42 -260 -22
-181 -29 -313 -29 -580 0 -230 6 -369 20 -485 3 -19 7 -53 9 -75 7 -60 15
-116 21 -150 3 -16 7 -43 10 -60 8 -47 14 -77 25 -125 5 -25 12 -58 16 -75 3
-16 7 -39 9 -50 9 -43 26 -111 32 -125 3 -8 7 -21 9 -29 1 -8 6 -26 10 -40 4
-14 8 -29 9 -33 2 -5 3 -9 5 -10 1 -2 3 -10 5 -18 9 -45 100 -306 109 -312 6
-4 8 -8 3 -8 -4 0 0 -17 9 -37 8 -21 16 -42 17 -48 1 -5 6 -13 10 -16 5 -3 10
-12 11 -20 11 -56 187 -414 272 -555 45 -75 90 -148 106 -173 10 -14 23 -36
29 -48 7 -13 16 -23 21 -23 4 0 8 -5 8 -10 0 -6 4 -16 10 -23 5 -7 44 -59 86
-117 43 -58 89 -119 103 -136 14 -17 35 -42 45 -55 36 -45 121 -143 158 -183
21 -21 38 -44 38 -49 0 -6 2 -8 5 -5 3 3 32 -22 63 -55 31 -33 75 -77 97 -98
22 -20 54 -50 70 -65 60 -56 171 -152 225 -195 30 -24 61 -49 68 -56 7 -7 16
-13 20 -13 4 0 21 -12 37 -28 17 -15 42 -33 58 -41 15 -8 27 -18 27 -23 0 -4
7 -8 15 -8 8 0 15 -4 15 -10 0 -5 5 -10 10 -10 6 0 20 -8 31 -18 10 -11 32
-25 47 -33 15 -8 32 -18 39 -24 34 -28 70 -51 98 -64 11 -5 36 -20 56 -33 19
-14 64 -40 100 -59 35 -18 66 -36 69 -39 3 -3 37 -21 75 -40 39 -19 78 -42 89
-50 10 -8 20 -14 22 -13 2 1 39 -14 81 -34 72 -32 121 -54 133 -58 3 -1 14 -5
25 -10 100 -41 134 -52 139 -47 3 3 6 0 6 -6 0 -7 3 -11 8 -11 4 1 9 0 12 -1
3 -1 12 -3 20 -5 13 -3 148 -48 190 -63 22 -8 33 -11 50 -14 8 -2 21 -7 28
-11 6 -5 12 -6 12 -4 0 3 34 -6 76 -19 43 -13 81 -21 85 -18 5 3 9 1 9 -3 0
-5 8 -9 18 -9 9 -1 59 -11 110 -23 51 -12 107 -23 125 -25 18 -3 32 -5 32 -6
0 -1 11 -3 25 -5 14 -2 36 -6 50 -9 14 -3 44 -8 65 -10 22 -2 74 -9 115 -15
41 -6 93 -13 115 -16 55 -7 351 -18 459 -17 87 1 116 -8 116 -37 0 -21 27 -11
38 14 6 14 17 25 24 26 7 0 33 2 58 4 25 2 84 7 132 10 48 3 98 8 110 10 13 2
46 7 73 9 28 3 68 8 90 12 22 3 51 7 65 9 14 2 25 4 25 5 0 1 16 3 35 6 19 2
100 20 180 39 80 20 154 37 165 39 22 3 202 54 225 63 8 4 18 7 23 8 4 2 8 3
10 5 1 1 9 3 17 5 111 25 671 266 692 299 4 6 8 8 8 3 0 -4 18 4 40 18 22 14
42 25 44 25 9 0 181 104 184 112 2 4 8 8 13 8 10 0 161 99 235 154 23 17 54
40 70 51 39 28 177 137 190 150 6 5 32 28 58 50 102 85 267 245 375 364 42 46
83 91 91 100 22 24 152 182 175 215 11 15 38 51 59 79 22 29 80 115 131 192
80 123 118 185 175 287 21 39 154 302 155 308 1 3 9 22 18 42 32 71 47 108 47
113 0 3 6 18 14 33 13 26 114 301 122 332 2 8 19 71 38 139 20 68 38 135 40
150 2 14 5 26 6 26 4 0 34 147 66 330 9 52 16 108 30 235 27 254 26 771 -2
970 -3 19 -7 53 -9 75 -2 22 -4 40 -5 40 -1 0 -4 23 -7 50 -5 54 -60 340 -70
365 -3 8 -7 28 -9 44 -5 37 -45 177 -92 321 -20 61 -37 112 -37 115 -2 6 -6
17 -60 155 -69 176 -173 398 -222 478 -13 20 -20 37 -17 37 4 0 0 8 -8 18 -8
9 -18 24 -22 32 -3 8 -17 33 -31 55 -14 22 -34 56 -45 75 -44 75 -207 318
-225 335 -6 6 -36 44 -68 85 -31 41 -68 89 -82 105 -14 17 -42 50 -63 74 -131
153 -356 377 -499 494 -40 33 -73 64 -73 70 0 6 -3 8 -6 4 -5 -5 -39 19 -136
98 -35 29 -192 136 -206 141 -1 0 4 22 12 47 8 26 12 47 9 47 -3 0 0 6 6 14 6
8 11 18 10 22 -1 5 0 11 1 14 1 3 3 13 5 23 2 10 7 26 11 35 4 9 8 24 9 32 1
8 10 42 19 75 10 33 22 76 27 95 6 19 11 41 11 48 1 6 5 12 10 12 5 0 7 4 4 8
-3 5 1 30 8 58 12 48 13 49 47 46 19 -2 90 -17 159 -34 69 -16 136 -31 150
-33 14 -2 27 -5 30 -6 3 -1 10 -3 15 -4 26 -4 250 -58 254 -61 2 -2 -52 -60
-120 -130 -181 -185 -167 -173 -200 -164 -16 5 -29 6 -29 2 0 -4 -37 -7 -83
-7 -45 0 -97 -2 -116 -5 l-34 -5 172 -175 c95 -96 256 -260 359 -364 l186
-188 19 23 c11 13 48 56 82 94 35 39 73 81 84 95 28 34 96 111 151 173 25 27
53 59 63 71 10 11 38 44 62 71 24 28 53 61 65 75 47 55 136 155 158 176 12 13
22 25 22 28 0 3 15 21 33 39 17 19 55 60 82 92 28 32 63 74 79 93 17 20 25 36
20 40 -6 4 -39 50 -75 102 -35 52 -70 99 -76 103 -7 4 -13 12 -13 18 0 5 -18
34 -40 63 -22 29 -40 58 -40 64 0 5 -4 12 -8 14 -5 2 -63 82 -130 178 -67 96
-125 180 -130 186 -5 6 -27 37 -48 69 -22 33 -47 70 -58 82 -10 12 -24 31 -30
41 -16 29 -98 146 -106 152 -4 3 -9 12 -12 21 -6 15 -50 24 -61 13z"/>
</g>
</svg>
