<?xml version="1.0" encoding="UTF-8"?>
<svg id="Vrstva_1" data-name="Vrstva 1" xmlns="http://www.w3.org/2000/svg" xmlns:xlink="http://www.w3.org/1999/xlink" viewBox="0 0 6226.95 684.25">
  <defs>
    <style>
      .cls-1 {
        fill: url(#linear-gradient-2);
      }

      .cls-1, .cls-2 {
        fill-rule: evenodd;
      }

      .cls-2 {
        fill: none;
        stroke: url(#linear-gradient);
        stroke-linecap: round;
        stroke-linejoin: round;
        stroke-width: 25px;
      }
    </style>
    <linearGradient id="linear-gradient" x1="3113.47" y1="136.22" x2="3113.47" y2="0" gradientUnits="userSpaceOnUse">
      <stop offset=".5" stop-color="#129081"/>
      <stop offset=".61" stop-color="#138c7d"/>
      <stop offset=".72" stop-color="#168174"/>
      <stop offset=".82" stop-color="#1c6e64"/>
      <stop offset=".92" stop-color="#24544e"/>
      <stop offset="1" stop-color="#2c3b38"/>
    </linearGradient>
    <linearGradient id="linear-gradient-2" x1="3113.47" y1="684.25" x2="3113.47" y2="18.1" gradientUnits="userSpaceOnUse">
      <stop offset="0" stop-color="#129081"/>
      <stop offset="1" stop-color="#2c3b38"/>
    </linearGradient>
  </defs>
  <path class="cls-2" d="M12.5,113.93c4.91-1.22,151.18,.99,347.27-41.44,196.1-42.43,310.26,17.56,393.66,42.43,83.42,24.9,120.01-61.44,223.91-61.44s98.04,70.24,182.92,70.24S1491.39,12.5,1563.1,12.5s317.95,111.22,402.84,111.22,79.02-70.24,182.92-70.24,140.49,86.34,223.91,61.44c83.4-24.87,197.56-84.86,393.66-42.43,193.91,41.96,339.11,40.26,347.05,41.4,8.04-1.14,153.21,.54,347.04-41.4,196.1-42.43,310.26,17.56,393.66,42.43,83.42,24.9,120.01-61.44,223.91-61.44s98.04,70.24,182.92,70.24,331.13-111.22,402.84-111.22,317.95,111.22,402.84,111.22,79.02-70.24,182.92-70.24,140.49,86.34,223.91,61.44c83.4-24.87,197.56-84.86,393.65-42.43,196.1,42.43,342.37,40.22,347.28,41.44"/>
  <path class="cls-1" d="M6214.45,119.53V684.25H12.5V119.53c4.91-1.22,151.18,.99,347.27-41.44,196.1-42.43,310.26,17.56,393.66,42.43,83.42,24.9,120.01-61.44,223.91-61.44s98.04,70.24,182.92,70.24S1491.39,18.1,1563.1,18.1s317.95,111.22,402.84,111.22,79.02-70.24,182.92-70.24,140.49,86.34,223.91,61.44c83.4-24.87,197.56-84.86,393.66-42.43,193.91,41.96,339.11,40.26,347.05,41.4,8.04-1.14,153.21,.54,347.04-41.4,196.1-42.43,310.26,17.56,393.66,42.43,83.42,24.9,120.01-61.44,223.91-61.44s98.04,70.24,182.92,70.24,331.13-111.22,402.84-111.22,317.95,111.22,402.84,111.22,79.02-70.24,182.92-70.24,140.49,86.34,223.91,61.44c83.4-24.87,197.56-84.86,393.65-42.43,196.1,42.43,342.37,40.22,347.28,41.44Z"/>
</svg>