<?xml version="1.0" encoding="UTF-8"?>
<svg id="Vrstva_1" data-name="Vrstva 1" xmlns="http://www.w3.org/2000/svg" xmlns:xlink="http://www.w3.org/1999/xlink" viewBox="0 0 6226.95 320.38">
  <defs>
    <style>
      .cls-1 {
        fill: url(#linear-gradient-2);
      }

      .cls-1, .cls-2 {
        fill-rule: evenodd;
      }

      .cls-2 {
        fill: none;
        stroke: url(#linear-gradient);
        stroke-linecap: round;
        stroke-linejoin: round;
        stroke-width: 25px;
      }
    </style>
    <linearGradient id="linear-gradient" x1="3113.47" y1="128.02" x2="3113.47" y2="0" gradientUnits="userSpaceOnUse">
      <stop offset=".5" stop-color="#129081"/>
      <stop offset=".61" stop-color="#138c7d"/>
      <stop offset=".72" stop-color="#168174"/>
      <stop offset=".82" stop-color="#1c6e64"/>
      <stop offset=".92" stop-color="#24544e"/>
      <stop offset="1" stop-color="#2c3b38"/>
    </linearGradient>
    <linearGradient id="linear-gradient-2" x1="3113.47" y1="320.38" x2="3113.47" y2="12.5" gradientUnits="userSpaceOnUse">
      <stop offset=".16" stop-color="#129081"/>
      <stop offset=".37" stop-color="#1b7166"/>
      <stop offset=".68" stop-color="#274944"/>
      <stop offset=".84" stop-color="#2c3b38"/>
    </linearGradient>
  </defs>
  <path class="cls-2" d="M12.5,105.99c2.83-.32,4.59-.7,5.18-.67,32.93,1.71,101.36,2.85,183.27-4.76,96.93-9.01,214.43-15.89,247.54-24.99,61.08-16.79,154.31-14.89,213.02-17.85,58.71-2.95,130.68-1.1,210.65-7.14,79.96-6.04,176.07,43.41,249.91,59.5,73.85,16.1,217.15-3.91,309.43-54.74,43.27-23.85,106.76-42.84,131.6-42.84s88.33,18.99,131.6,42.84c92.28,50.83,235.58,70.84,309.42,54.74,73.85-16.09,169.95-65.54,249.92-59.5,79.97,6.04,151.94,4.19,210.65,7.14,58.71,2.96,151.94,1.06,213.02,17.85,33.11,9.1,150.61,15.98,247.54,24.99,81.91,7.61,150.34,6.47,183.27,4.76,.57-.03,2.26,.33,4.96,.64,2.7-.31,4.38-.67,4.95-.64,32.93,1.71,101.36,2.85,183.27-4.76,96.93-9.01,214.43-15.89,247.54-24.99,61.08-16.79,154.31-14.89,213.02-17.85,58.71-2.95,130.68-1.1,210.64-7.14,79.97-6.04,176.07,43.41,249.92,59.5,73.85,16.1,217.15-3.91,309.42-54.74,43.28-23.85,106.77-42.84,131.61-42.84s88.33,18.99,131.6,42.84c92.28,50.83,235.58,70.84,309.42,54.74,73.85-16.09,169.95-65.54,249.92-59.5,79.97,6.04,151.94,4.19,210.65,7.14,58.71,2.96,151.93,1.06,213.02,17.85,33.11,9.1,150.61,15.98,247.54,24.99,81.91,7.61,150.34,6.47,183.27,4.76,.59-.03,2.35,.35,5.18,.67"/>
  <path class="cls-1" d="M6214.45,105.99v214.39H12.5V105.99c2.83-.32,4.59-.7,5.18-.67,32.93,1.71,101.36,2.85,183.27-4.76,96.93-9.01,214.43-15.89,247.54-24.99,61.08-16.79,154.31-14.89,213.02-17.85,58.71-2.95,130.68-1.1,210.65-7.14,79.96-6.04,176.07,43.41,249.91,59.5,73.85,16.1,217.15-3.91,309.43-54.74,43.27-23.85,106.76-42.84,131.6-42.84s88.33,18.99,131.6,42.84c92.28,50.83,235.58,70.84,309.42,54.74,73.85-16.09,169.95-65.54,249.92-59.5,79.97,6.04,151.94,4.19,210.65,7.14,58.71,2.96,151.94,1.06,213.02,17.85,33.11,9.1,150.61,15.98,247.54,24.99,81.91,7.61,150.34,6.47,183.27,4.76,.57-.03,2.26,.33,4.96,.64,2.7-.31,4.38-.67,4.95-.64,32.93,1.71,101.36,2.85,183.27-4.76,96.93-9.01,214.43-15.89,247.54-24.99,61.08-16.79,154.31-14.89,213.02-17.85,58.71-2.95,130.68-1.1,210.64-7.14,79.97-6.04,176.07,43.41,249.92,59.5,73.85,16.1,217.15-3.91,309.42-54.74,43.28-23.85,106.77-42.84,131.61-42.84s88.33,18.99,131.6,42.84c92.28,50.83,235.58,70.84,309.42,54.74,73.85-16.09,169.95-65.54,249.92-59.5,79.97,6.04,151.94,4.19,210.65,7.14,58.71,2.96,151.93,1.06,213.02,17.85,33.11,9.1,150.61,15.98,247.54,24.99,81.91,7.61,150.34,6.47,183.27,4.76,.59-.03,2.35,.35,5.18,.67Z"/>
</svg>